<svg xmlns="http://www.w3.org/2000/svg" width="470" height="328" viewBox="0 0 470 328">
    <defs>
        <clipPath id="clip-path">
            <ellipse id="Ellipse_683" cx="19.789" cy="17.186" class="cls-1" rx="19.789" ry="17.186" transform="rotate(-30 36.903 9.888)"/>
        </clipPath>
        <style>
            .cls-1{fill:#30242a}.cls-7{fill:#fff}.cls-3{fill:#eff5ff}.cls-5{fill:#dbe9ff}.cls-12,.cls-13,.cls-19,.cls-26,.cls-27,.cls-6{fill:none;stroke-width:2px}.cls-6{stroke:#fff}.cls-9{fill:#eaa58b}.cls-10{fill:#0e1c32}.cls-12,.cls-13{stroke:#bb7259}.cls-12,.cls-13,.cls-19,.cls-26,.cls-27{stroke-linecap:round}.cls-13,.cls-27{stroke-miterlimit:10}.cls-19{stroke:#724342}.cls-15{fill:#ca7358}.cls-16{fill:#ffda3c}.cls-19,.cls-26{stroke-linejoin:round}.cls-21{fill:#724342}.cls-23{fill:#a15842}.cls-24{fill:#488efc}.cls-25{fill:#feda3c}.cls-26{stroke:#30242a}.cls-27{stroke:#a15842}.cls-31{fill:#e8e8e8}
        </style>
    </defs>
    <g id="Group_97" transform="translate(-488 -126)">
        <rect id="Rectangle_1937" width="94" height="40" class="cls-3" rx="12" transform="translate(602 180)"/>
        <rect id="Rectangle_1938" width="28" height="26" fill="#f5f9ff" rx="8" transform="translate(668 146)"/>
        <rect id="Rectangle_1940" width="106" height="59" class="cls-3" rx="16" transform="translate(745 318)"/>
        <g id="Layer_4" transform="translate(353.162 22.76)">
            <path id="Path_430" d="M15.785 0h194.227A15.782 15.782 0 0 1 225.8 15.78v149.663a15.782 15.782 0 0 1-15.785 15.78H15.785A15.782 15.782 0 0 1 0 165.443V15.78A15.782 15.782 0 0 1 15.785 0z" class="cls-5" transform="translate(354.332 103.24)"/>
            <path id="Path_431" d="M0 0h226.5" class="cls-6" transform="translate(354.332 137.153)"/>
            <path id="Path_432" d="M6.007 0A6.005 6.005 0 1 1 0 6.005 6.006 6.006 0 0 1 6.007 0z" class="cls-7" transform="translate(364.933 113.837)"/>
            <path id="Path_433" d="M6.007 0A6.005 6.005 0 1 1 0 6.005 6.006 6.006 0 0 1 6.007 0z" class="cls-7" transform="translate(383.138 113.837)"/>
            <path id="Path_434" d="M6.007 0A6.005 6.005 0 1 1 0 6.005 6.006 6.006 0 0 1 6.007 0z" class="cls-7" transform="translate(401.339 113.837)"/>
            <path id="Path_298" d="M400.426 484.413a15.782 15.782 0 0 1 15.785 15.78v149.663a15.782 15.782 0 0 1-15.785 15.78H206.2a15.782 15.782 0 0 1-15.785-15.78V500.193a15.782 15.782 0 0 1 15.785-15.78h194.226m0-1.413H206.2a17.213 17.213 0 0 0-17.2 17.193v149.663a17.213 17.213 0 0 0 17.2 17.193h194.226a17.213 17.213 0 0 0 17.2-17.193V500.193a17.213 17.213 0 0 0-17.2-17.193z" class="cls-7" transform="translate(-35.023 -274.489)"/>
            <path id="Path_435" d="M15.785 0h194.227A15.782 15.782 0 0 1 225.8 15.78v149.663a15.782 15.782 0 0 1-15.785 15.78H15.785A15.782 15.782 0 0 1 0 165.443V15.78A15.782 15.782 0 0 1 15.785 0z" class="cls-5" transform="translate(155.39 209.924)"/>
            <path id="Path_436" d="M0 0h226.5" class="cls-6" transform="translate(155.39 243.837)"/>
            <path id="Path_437" d="M6.007 0A6.005 6.005 0 1 1 0 6.005 6.006 6.006 0 0 1 6.007 0z" class="cls-7" transform="translate(165.991 220.522)"/>
            <path id="Path_438" d="M6.007 0A6.005 6.005 0 1 1 0 6.005 6.006 6.006 0 0 1 6.007 0z" class="cls-7" transform="translate(184.196 220.522)"/>
            <path id="Path_439" d="M6.007 0A6.005 6.005 0 1 1 0 6.005 6.006 6.006 0 0 1 6.007 0z" class="cls-7" transform="translate(202.398 220.522)"/>
            <path id="Path_300" fill="#3ec1f3" d="M866.129 608.336l-.11-.106v.219z" transform="translate(-472.811 -355.48)"/>
            <path id="Path_311" d="M384.107 629.141s4.594-15.19 1.767-17.663c-3.413-2.985-9.187 6.712-13.841 18.37-4.894 12.248-19.081 46.984-19.788 49.456 0 0-24.173-13.212-34.983-18.016-9.541-4.239-21.163-5.779-21.163-5.779l-1.477-8.87s6.9 2.473 12.816-.985 7.4-9.859 5.424-19.716c-1.17-5.839-1.127-13.071-2.12-19.518-3.936.664-9.7-.689-9.7-.689-7.891 8.87-16.254 10.842-16.254 10.842-5.424-5.914-15.286-5.914-16.763 2.473-1.636 9.273 9.859 11.827 9.859 11.827s2.339 13.459-2.608 26.883c-6.873 18.652-34.58 23.6-45.937 15.544-20.495 14.484-2.364 58.489 14.841 79.13 14.134 16.956 64.311 8.125 64.311 8.125a35.73 35.73 0 0 0 12.368 5.652c12.014 23.669 16.961 16.957 16.961 16.957s4.24 4.592 7.421-.353c6.36.353 6.007-3.533.353-16.956 6.36 7.772 12.587 7.8 12.721 5.652.353-5.652-18.375-25.435-30.036-30.38a128.04 128.04 0 0 0-13.074-4.946l-1.767-28.614s37.5 20.588 55.124 10.951c22.615-12.364 31.8-73.125 31.8-73.125z" class="cls-9" transform="translate(-55.217 -353.863)"/>
            <path id="Path_312" d="M275.648 623.071c4.947-13.424 2.587-26.89 2.587-26.89s-11.495-2.554-9.859-11.827c1.477-8.379 11.339-8.379 16.763-2.473 0 0 8.378-1.971 16.255-10.842 0 0 5.767 1.353 9.7.689-.689-4.44-1.869-8.521-4.283-11.534-5.915-7.39-22.184-12.322-35-2.957s-11.834 24.643-11.339 30.557c0 0-22.166-5.426-33.958 11.248-14.488 20.489 3.18 39.565 3.18 39.565 11.374 8.066 39.081 3.116 45.954-15.536z" class="cls-10" transform="translate(-55.593 -319.18)"/>
            <path id="Path_313" fill="#ff7235" d="M366.8 810.1l-.618-10.022h.032l-2.958-48.807a96.231 96.231 0 0 0-9.929-2.5l-1.632 33.641h-27.563l-10.47-17.01a39.986 39.986 0 0 1-11.862 3.7l15.746 39.014 5.88 14.569s13.428.706 25.442 2.473 19.081 3.533 19.081 3.533z" transform="translate(-107.964 -446.372)"/>
            <path id="Path_442" d="M3.707 0L0 9.5" class="cls-12" transform="translate(292.494 325.126)"/>
            <path id="Path_315" d="M569.9 1044.9c-1.495-3.388-3.343-7.351-4.975-10.245" class="cls-13" transform="translate(-278.108 -631.269)"/>
            <path id="Path_316" d="M546.15 1044.63a141.63 141.63 0 0 1 9.65 21.694" class="cls-13" transform="translate(-265.971 -637.717)"/>
            <path id="Path_317" d="M527.49 1056.47c3.18 5.836 6.276 12.636 8.572 17.981" class="cls-13" transform="translate(-253.904 -645.374)"/>
            <path id="Path_443" fill="none" stroke="#724342" stroke-linecap="round" stroke-width="2px" d="M47 .353L0 0" transform="translate(212.458 367.655)"/>
            <path id="Path_318" d="M289.349 996.291a13.989 13.989 0 0 0-13.569 2.6c1.431 2.024 2.876 3.921 4.318 5.652 3.908 4.688 10.569 7.419 18.163 8.878a14.165 14.165 0 0 0-8.912-17.13z" class="cls-15" transform="translate(-91.138 -605.974)"/>
            <path id="Path_319" d="M608.429 900.117a29.249 29.249 0 0 0 8.481-7.44 13.781 13.781 0 0 0-7-5.4 14.2 14.2 0 0 0-17.94 8.994 14.585 14.585 0 0 0-.732 6.08c6.413.755 12.505.327 17.191-2.234z" class="cls-15" transform="translate(-295.086 -535.464)"/>
            <path id="Path_320" d="M249.05 800.292c-7.611 1.134-15.046.021-19.714-3.292-14.894 10.527-9.389 36.64 1.336 58.051l34.128-15.744z" class="cls-16" transform="translate(-55.218 -477.565)"/>
            <path id="Path_321" d="M349.727 741.359c-2.551 6.92-7.972 11.954-14.357 15.137l10.47 17.01h27.56l1.633-33.623c-2.714-.533-4.481-.77-4.481-.77l-.684-4.113h-18.3a48.079 48.079 0 0 1-1.841 6.359z" class="cls-16" transform="translate(-129.672 -437.467)"/>
            <path id="Path_322" d="M482.469 758.4a64.029 64.029 0 0 0-6.749-2.512l2.958 48.807a146.578 146.578 0 0 0 14.456 6.673l14.488-40.251c-7.944-4.237-18.831-9.889-25.153-12.717z" class="cls-16" transform="translate(-220.428 -450.977)"/>
            <path id="Path_444" d="M19.789 0c10.928 0 19.788 7.7 19.789 17.186s-8.857 17.188-19.785 17.187S.005 26.677 0 17.186 8.861 0 19.789 0z" class="cls-10" transform="rotate(-30 660.069 -92.805)"/>
            <g id="Group_93" clip-path="url(#clip-path)" transform="translate(134.838 297.826)">
                <path id="Path_323" fill="none" stroke="#0e1c32" stroke-linecap="round" stroke-linejoin="round" stroke-width="2px" d="M221.5 751.5s2.474 14.837 14.488 19.429" transform="translate(-190.877 -745.964)"/>
            </g>
            <path id="Path_445" d="M8.127.353L0 0" class="cls-12" transform="translate(207.158 375.427)"/>
            <path id="Path_325" d="M419.074 718.909a41.389 41.389 0 0 1-6.194-2.709" class="cls-13" transform="translate(-179.793 -425.308)"/>
            <path id="Path_327" d="M415.592 909.217s-8.187-11.583-4.385-13.106c3.07-1.229 3.947 7.783 4.385 13.106z" class="cls-19" transform="translate(-178.06 -541.59)"/>
            <path id="Path_328" d="M426.19 919.418s4.025-9.291 6.551-7.8c2.039 1.198-3.341 5.373-6.551 7.8z" class="cls-19" transform="translate(-188.4 -551.586)"/>
            <path id="Path_446" d="M0 0l.629 3.766" class="cls-12" transform="translate(241.688 301.892)"/>
            <path id="Path_447" d="M4.4 2.445L0 0" class="cls-12" transform="translate(219.698 266.633)"/>
            <path id="Path_329" fill="none" stroke="#bb7259" stroke-linecap="round" stroke-linejoin="round" stroke-width="2px" d="M446.87 677.85c.251 4.635 5.014 5.02 6.18 1.766z" transform="translate(-201.772 -400.506)"/>
            <path id="Path_448" d="M1.466 0A1.466 1.466 0 1 1 0 1.466 1.466 1.466 0 0 1 1.466 0z" class="cls-21" transform="translate(240.787 266.269)"/>
            <path id="Path_449" d="M1.466 0A1.466 1.466 0 1 1 0 1.466 1.466 1.466 0 0 1 1.466 0z" class="cls-21" transform="translate(251.691 263.62)"/>
            <path id="Path_330" d="M458.549 655.72a6.029 6.029 0 0 1 .58 2.349 2.141 2.141 0 0 1-.859 1.127" class="cls-13" transform="translate(-209.144 -386.193)"/>
            <path id="Path_451" fill="#f4e6d8" d="M4.417 0A4.416 4.416 0 1 1 0 4.416 4.416 4.416 0 0 1 4.417 0z" transform="translate(216.875 274.218)"/>
            <g id="Group_96" transform="translate(394.911 125.527)">
                <ellipse id="Ellipse_695" cx="2.506" cy="3.005" class="cls-9" rx="2.506" ry="3.005" transform="translate(19.552 35.264)"/>
                <path id="Path_365" d="M271 660.639s-8 .442-13.972-2.914c-5.654-3.179-6.565-8.16-4.594-18.016 0 0-3.534-2.12-3.18-4.239.23-1.4 4.24-2.826 4.24-2.826.5-2.692 1.138-6.761 2.17-10.923a43.034 43.034 0 0 0 7.834.805c7.887 8.87 16.5 9.411 16.5 9.411a13.49 13.49 0 0 1 4.922-4.43l11.763 4.688a11.261 11.261 0 0 1 .276 1.155c1.636 9.273-9.894 12.717-9.894 12.717 2.325 8.881 9.894 12.364 15.576 13.731l-.481 4.412h-31.753z" class="cls-9" transform="translate(-155.924 -600.941)"/>
                <path id="Path_366" d="M473.329 733.364C445.767 725.239 444 660.239 444 660.239l14.378-18.5s-2.717-13.3.11-15.77c3.413-2.985 7.714 6.359 12.368 18.016 4.891 12.247 14.025 48.269 14.732 50.742 0 0 6.855-3.222 14.979-6.966l1.152 3.787 10.481 35.326c-11.493 4.702-27.779 9.761-38.871 6.49z" class="cls-9" transform="translate(-434.305 -603.328)"/>
                <path id="Path_367" d="M241.84 665.242s11.53-3.444 9.894-12.717a11.274 11.274 0 0 0-.276-1.155l8.569 3.4c0 .244-.039.473-.057.707l-2.555 23.5c-5.692-1.37-13.25-4.854-15.575-13.735z" class="cls-23" transform="translate(-110.699 -620.117)"/>
                <path id="Path_368" d="M323.712 622.313s-8.611-.541-16.5-9.411a43.039 43.039 0 0 1-7.834-.805c.438-1.766.951-3.55 1.558-5.257l27.7 11.043a13.49 13.49 0 0 0-4.924 4.43z" class="cls-23" transform="translate(-199.639 -591.318)"/>
                <path id="Path_369" d="M277.853 640.8l-11.763-4.69c4.859-2.466 10.191-.668 11.763 4.69z" class="cls-1" transform="translate(-137.094 -609.544)"/>
                <path id="Path_370" d="M268.882 589.465l-27.7-11.043a24.83 24.83 0 0 1 3.693-7.136c5.915-7.394 20.438-12.76 33.258-3.395 12.343 9.019 11.59 23.35 11.078 29.674l-8.569-3.416c-1.569-5.349-6.901-7.149-11.76-4.684z" class="cls-10" transform="translate(-139.886 -562.9)"/>
                <path id="Path_371" d="M225.42 757.543l.841-7.27a71.286 71.286 0 0 1 16.763-2.974l.883-5.3h31.771l-.5 4.592a53.568 53.568 0 0 1 9.392.8l-4.445 10.149z" class="cls-24" transform="translate(-129.442 -678.731)"/>
                <path id="Path_372" d="M298.986 826.6H251.07l1.23-10.6h51.318z" class="cls-24" transform="translate(-157.548 -726.59)"/>
                <path id="Path_373" d="M322.941 876l-4.629 10.6H277.28l.421-4.013-.035.018.767-6.6z" class="cls-24" transform="translate(-186.136 -765.394)"/>
                <path id="Path_374" d="M340.576 941.525s-23.028 1.533-35.336 3.533l.947-9.058h36.887z" class="cls-24" transform="translate(-216.149 -804.198)"/>
                <path id="Path_375" d="M237.97 796.6l1.23-10.6h54.718l-4.629 10.6z" class="cls-25" transform="translate(-143.222 -707.187)"/>
                <path id="Path_376" d="M313.312 846l-4.633 10.6H264.17l1.23-10.6z" class="cls-25" transform="translate(-171.874 -745.992)"/>
                <path id="Path_377" d="M332.713 907.286L328.5 916.6h-36.89l1.106-10.6h40.6z" class="cls-25" transform="translate(-201.572 -784.796)"/>
                <path id="Path_378" d="M390.465 778.3c4.014-1.851 8.336-3.843 12.29-5.61 3.466-1.561 6.654-2.974 9.1-4.013A81.45 81.45 0 0 1 421 765.42l-.841 7.27-1.23 10.6-1.226 10.6-1.226 10.6-.767 6.6c-.353.184-3.466 1.862-8.184 4-1.569.707-3.315 1.47-5.191 2.24l-.254.1-10.489-35.33-1.152-3.787z" class="cls-24" transform="translate(-324.18 -693.878)"/>
                <path id="Path_379" d="M286.394 916.6l4.216-9.312.6-1.286h.435l-.926 2.12 34.435 12.519c-5.8 11.552-12.368 21.464-17.23 26.212-16.961 16.6-61.379 6.26-61.379 6.26a31.715 31.715 0 0 1-11.767 5.4c-12.014 23.669-18.622 15.445-18.622 15.445s-4.24 4.592-7.421-.353c-6.36.353-6.007-3.533-.353-16.956-6.36 7.772-12.693 7.9-12.827 5.751-.353-5.652 15.548-24.375 30.142-30.479 8.777-3.67 22.862-6.26 22.862-6.26 12.308-1.982 35.336-3.533 35.336-3.533z" class="cls-9" transform="translate(-159.469 -784.796)"/>
                <path id="Path_380" d="M182.025 757.27c6.555 1.123 14.961 3.79 19.816 10.149a19.27 19.27 0 0 1 3.887 10.824c.8 12.862-5.5 30.96-13.159 46.206l-34.424-12.52z" class="cls-24" transform="translate(-26.895 -688.607)"/>
                <path id="Line_178" d="M0.707 0L0 6.232" class="cls-26" transform="translate(120.293 63.75)"/>
                <path id="Line_179" d="M0.707 0L0 6.232" class="cls-26" transform="translate(126.3 63.75)"/>
                <path id="Path_381" d="M320 730.766a18.7 18.7 0 0 0 6.654-1.766" class="cls-27" transform="translate(-204.944 -670.323)"/>
                <path id="Path_382" d="M515.94 1032.808c1.36-3.017 2.919-6.288 4.322-8.768" class="cls-27" transform="translate(-467.789 -861.137)"/>
                <path id="Path_383" d="M507.054 1034a142.806 142.806 0 0 0-9.894 22.365" class="cls-27" transform="translate(-447.946 -867.579)"/>
                <path id="Path_384" d="M484.4 1047c-3.18 5.832-6.8 12.869-9.4 18.112" class="cls-27" transform="translate(-417.464 -875.986)"/>
                <path id="Line_180" d="M0 13.166L1.276 0" class="cls-26" transform="translate(91.105 103.894)"/>
                <path id="Line_181" d="M0 0L2.382 9.326" class="cls-27" transform="translate(52.08 91.262)"/>
                <path id="Line_182" d="M4.385 0L0 0" class="cls-26" transform="translate(141.498 67.155)"/>
                <path id="Line_183" d="M0.664 0L0 3.978" class="cls-26" transform="translate(112.165 68.603)"/>
                <path id="Line_184" fill="none" stroke="#488efc" stroke-linecap="round" stroke-miterlimit="10" stroke-width="2px" d="M0 0L44.523 16.957" transform="translate(105.239 7.549)"/>
                <path id="Line_185" d="M0 0.576L9.647 0" class="cls-27" transform="translate(125.028 135.913)"/>
                <path id="Line_186" d="M0 29.416L13.29 0" class="cls-26" transform="translate(124.674 107.427)"/>
                <path id="Path_385" d="M590 662.9c.813 3.2 1.951 7.418 3.088 10.633a25.366 25.366 0 0 0 .353 22.962" class="cls-27" transform="translate(-567.139 -627.574)"/>
                <path id="Line_187" d="M0 3.886L5.3 0" class="cls-27" transform="translate(128.777 33.595)"/>
                <circle id="Ellipse_694" cx="1.466" cy="1.466" r="1.466" class="cls-1" transform="translate(102.335 30.19)"/>
                <path id="Line_188" fill="none" stroke="#0f1c31" stroke-linecap="round" stroke-linejoin="round" stroke-width="2px" d="M67.333 25.523L0 0" transform="translate(91.642 12.403)"/>
                <path id="Path_389" d="M370.913 680.77c-.353.707-2.322 2.332-4.223 1.226" class="cls-27" transform="translate(-265.701 -639.131)"/>
                <path id="Path_390" d="M588.409 707.444a5.647 5.647 0 0 0 1.336-4.614s3.18 1.766 5.3 0a5.55 5.55 0 0 0 1.767-5.652s3.18 1.06 4.594-1.413c1.534-2.681-.353-6.359-.353-6.359a2.869 2.869 0 0 0 3.18-2.12c.813-3.13-.887-5.977-2.675-8.037" class="cls-27" transform="translate(-577.577 -638.148)"/>
                <path id="Path_392" d="M602.593 659.78a5.8 5.8 0 0 0-2.583 5.8s-6.618-.908-6.424 5.857c0 0-5.276 2.423-2.855 7.7 0 0-3.629.947-1.816 6.744 1.767 5.652 5.382 9.217 7.774 9.538 1.265.17 4.24-1.06 3.887-5.652 0 0 3.18 1.766 5.3 0a5.551 5.551 0 0 0 1.767-5.652s3.18 1.06 4.594-1.413c1.534-2.681-.353-6.359-.353-6.359a2.87 2.87 0 0 0 3.18-2.12c1.357-5.218-4.272-9.648-5.654-10.951l1.06-2.826s-4.594-2.637-7.877-.666z" class="cls-9" transform="translate(-588.407 -625.083)"/>
                <path id="Path_393" d="M608.012 689.789c-4.011-2.36-10.088-6.712-13.5-11.919" class="cls-27" transform="translate(-583.303 -637.255)"/>
                <path id="Path_394" d="M622.807 708.417A53.084 53.084 0 0 1 607.69 695.3" class="cls-27" transform="translate(-602.755 -648.528)"/>
                <path id="Path_395" d="M640.6 728.094a53.632 53.632 0 0 1-9.993-10.474" class="cls-27" transform="translate(-628.65 -662.963)"/>
            </g>
            <g id="google-docs_1_" transform="rotate(-45.97 410.456 -214.21)">
                <g id="Docs_3_">
                    <g id="Group_77">
                        <g id="Group_76">
                            <g id="Group_75">
                                <g id="Group_74">
                                    <path id="Path_37" d="M83.149 28.8l-22.386-6.4L54.361.016 9.593 0A9.587 9.587 0 0 0 0 9.593l.029 89.964a9.6 9.6 0 0 0 9.6 9.6l63.954.018a9.587 9.587 0 0 0 9.59-9.591z" class="cls-24"/>
                                </g>
                            </g>
                        </g>
                    </g>
                    <path id="Path_38" fill="#3f84f0" d="M41.579 28.792l.02 70.777a9.587 9.587 0 0 1-9.59 9.591l-31.978-.009L0 0h12.791l6.4 22.386z" transform="translate(41.57 .012)"/>
                    <path id="Path_39" d="M28.788 28.788L6.4 28.782a6.419 6.419 0 0 1-6.4-6.4V0a3 3 0 0 1 2.238.96l25.59 25.59a3 3 0 0 1 .96 2.238z" class="cls-24" transform="translate(54.361 .016)"/>
                    <g id="Group_80" transform="translate(19.207 70.57)">
                        <path id="Path_42" d="M41.572 6.408L3.2 6.4a3.2 3.2 0 0 1 0-6.4l38.37.012a3.2 3.2 0 0 1 0 6.4z" class="cls-7"/>
                    </g>
                    <g id="Group_81" transform="translate(19.21 83.361)">
                        <path id="Path_43" d="M28.781 6.4H3.2a3.2 3.2 0 0 1 0-6.4l25.579.008a3.2 3.2 0 0 1 0 6.4z" class="cls-7"/>
                    </g>
                </g>
                <g id="Docs_4_" transform="translate(41.591 70.576)">
                    <g id="Group_86">
                        <g id="Group_82" transform="translate(.004 12.791)">
                            <path id="Path_44" d="M0 6.4h6.4a3.2 3.2 0 0 0 0-6.4H0z" class="cls-31"/>
                        </g>
                        <g id="Group_83">
                            <path id="Path_45" d="M0 6.4h19.188a3.2 3.2 0 0 0 0-6.4H0z" class="cls-31"/>
                        </g>
                    </g>
                </g>
            </g>
            <path id="Path_452" d="M383.771 629.132s4.594-15.19 1.767-17.663c-3.413-2.985-9.187 6.712-13.841 18.37-4.897 12.247 5.92 21.487 12.074-.707z" class="cls-9" transform="translate(-52.877 -358.863)"/>
            <path id="Path_314" d="M683.88 674.48c-.29.922-.587 1.819-.88 2.657 0 0 9.011 10.421 3.357 23.845" class="cls-13" transform="translate(-354.463 -401.331)"/>
        </g>
    </g>
</svg>
